# xmcd
#
# Track frame offsets: 
#        150
#        19853
#        47860
#        75331
#        111471
#        144011
#        177721
#        205174
#        238599
#
# Disc length: 3656 seconds
#
# Revision: 1
# Processed by: cddbd v1.4PL0 Copyright (c) Steve Scherf et al.
# Submitted via: ExactAudioCopy v0.95a3
#
DISCID=750e4609
DTITLE=Robin Eubanks - 4-JJ - Slide - Curtis and Al
DYEAR=1998
DGENRE=Jazz
TTITLE0=JJ
TTITLE1=Shorter Bu
TTITLE2=Black Nite
TTITLE3=Child is Born
TTITLE4=Speak Low
TTITLE5=Struttin' and Swingin'
TTITLE6=Back in the Day
TTITLE7=Sunset in Bahia
TTITLE8=Jam on the Spot
EXTD=YEAR: 1998
EXTT0=
EXTT1=
EXTT2=
EXTT3=
EXTT4=
EXTT5=
EXTT6=
EXTT7=
EXTT8=
PLAYORDER=
